<svg width="120" height="120" xmlns="http://www.w3.org/2000/svg" xmlns:svg="http://www.w3.org/2000/svg">
 <!-- Created with SVG-edit - https://github.com/SVG-Edit/svgedit-->
 <g class="layer">
  <title>Layer 1</title>
  <polygon fill="#ffffff" id="svg_20"/>
  <polygon fill="#ffffff" id="svg_21"/>
  <polygon fill="#ffffff" id="svg_22"/>
  <polygon fill="#ffffff" id="svg_23"/>
  <polygon fill="#ffffff" id="svg_24"/>
  <polygon fill="#ffffff" id="svg_25" points="271.69317772836735,175.20548960933925 271.849920462312,175.65641841083925 272.32721540589745,175.6661449464226 271.9467927993794,175.95456080783924 272.085034563229,176.41150093892253 271.69317772836735,176.1388229426726 271.3013208935057,176.41150093892253 271.4395626573553,175.95456080783924 271.05914005083724,175.6661449464226 271.5364349944227,175.65641841083925 271.69317772836735,175.20548960933925 271.849920462312,175.65641841083925 " stroke-width="5"/>
  <polygon fill="#ffffff" id="svg_26" points="271.69317772836735,174.20548960933925 271.849920462312,174.65641841083925 272.32721540589745,174.6661449464226 271.9467927993794,174.95456080783924 272.085034563229,175.41150093892253 271.69317772836735,175.1388229426726 271.3013208935057,175.41150093892253 271.4395626573553,174.95456080783924 271.05914005083724,174.6661449464226 271.5364349944227,174.65641841083925 271.69317772836735,174.20548960933925 271.849920462312,174.65641841083925 " stroke-width="5"/>
  <polygon fill="#ffffff" id="svg_27"/>
  <polygon fill="#ffffff" id="svg_28" points="284.69317772836735,200.38144429100606 285.04366513644675,201.3897517441726 286.11092907562073,201.41150093892253 285.2602782672687,202.05641841083926 285.5693962485659,203.07816760558921 284.69317772836735,202.46844107000587 283.8169592081688,203.07816760558921 284.126077189466,202.05641841083926 283.27542638111396,201.41150093892253 284.34269032028794,201.3897517441726 284.69317772836735,200.38144429100606 285.04366513644675,201.3897517441726 " stroke-width="5"/>
  <polygon fill="#ffffff" id="svg_29" points="320.69317772836735,175.1581110680956 321.8015162291072,178.34665920182542 325.1765011414604,178.41543619450985 322.4865070936046,180.45484430860435 323.464023980217,183.68589896145713 320.69317772836735,181.75777435917004 317.9223314765177,183.68589896145713 318.8998483631301,180.45484430860435 316.2098543152743,178.41543619450985 319.58483922762747,178.34665920182542 320.69317772836735,175.1581110680956 321.8015162291072,178.34665920182542 " stroke-width="5"/>
  <polygon fill="#ffffff" id="svg_30"/>
  <polygon fill="#ffffff" id="svg_31"/>
  <polygon fill="#ffffff" id="svg_32"/>
  <polygon fill="#ffffff" id="svg_33"/>
  <polygon fill="#ffffff" id="svg_34"/>
  <polygon fill="#ffffff" id="svg_35" points="314.69317772836735,120.88731127106462 322.44837990559034,143.19803620967747 346.0636295093024,143.67927861265545 327.24135844074135,157.9493073413461 334.08118317142487,180.55745644182701 314.69317772836735,167.06609427798242 295.3051722853098,180.55745644182701 302.14499701599334,157.9493073413461 283.3227259474323,143.67927861265545 306.93797555114435,143.19803620967747 314.69317772836735,120.88731127106462 322.44837990559034,143.19803620967747 " stroke-width="5"/>
  <polygon fill="#ffffff" id="svg_36" points="323.69317772836735,199.13727276464417 325.0415297090048,203.016308987425 329.1473760620416,203.09997981023446 325.874857061837,205.5810268623145 327.0640576799611,209.51177449745825 323.69317772836735,207.16610968055062 320.3222977767736,209.51177449745825 321.51149839489767,205.5810268623145 318.2389793946931,203.09997981023446 322.3448257477299,203.016308987425 323.69317772836735,199.13727276464417 325.0415297090048,203.016308987425 " stroke-width="5"/>
  <ellipse cx="316.19317" cy="241.09944" fill="#00ffff" id="svg_37" rx="247.5" ry="233.5" stroke="#000000" stroke-dasharray="null" stroke-linecap="null" stroke-linejoin="null" stroke-width="9"/>
  <path d="m142.69318,264.59942c0,0 90,24 151,118c61,94 -26,-90 165.30682,-305.59942" fill="none" id="svg_52" stroke="#600202" stroke-dasharray="null" stroke-linecap="null" stroke-linejoin="null" stroke-width="29"/>
 </g>
</svg>